<svg width="48" height="48" viewBox="0 0 48 48" fill="none" xmlns="http://www.w3.org/2000/svg">
    <circle cx="24" cy="24" r="24" fill="#B5F1FF"/>
    <path fill-rule="evenodd" clip-rule="evenodd"
          d="M27.5299 18.5308C27.823 18.2382 27.8235 17.7633 27.5308 17.4701C27.2382 17.177 26.7633 17.1766 26.4702 17.4692L21.2823 22.6478C21.258 22.6667 21.2347 22.6874 21.2124 22.7097C21.1904 22.7316 21.1701 22.7546 21.1514 22.7785L16.4702 27.4514C16.2554 27.6658 16.191 27.9885 16.307 28.2689C16.423 28.5493 16.6966 28.7322 17 28.7322H31C31.4142 28.7322 31.75 28.3964 31.75 27.9822C31.75 27.568 31.4142 27.2322 31 27.2322H24.4192C24.3462 26.5103 24.1681 25.8015 23.8894 25.1287C23.6115 24.4578 23.2376 23.8324 22.7806 23.2716L27.5299 18.5308ZM21.7122 24.3381L18.813 27.2322H22.9096C22.843 26.7077 22.7068 26.1933 22.5036 25.7027C22.301 25.2138 22.0347 24.755 21.7122 24.3381Z"
          fill="#262626"/>
</svg>