<svg width="57" height="36" viewBox="0 0 57 36" fill="none" xmlns="http://www.w3.org/2000/svg">
    <path fill-rule="evenodd" clip-rule="evenodd"
          d="M26.553 35.9876C16.6699 35.9876 8.65625 27.932 8.65625 17.9951C8.65625 8.05718 16.6699 0 26.553 0C36.4396 0 44.4542 8.05718 44.4542 17.9951C44.4542 27.932 36.4396 35.9876 26.553 35.9876Z"
          fill="#C30000"/>
    <path fill-rule="evenodd" clip-rule="evenodd" d="M0 25.8515L3.65838 16.7495H7.17352L3.5198 25.8515H0Z"
          fill="#C30000"/>
    <path fill-rule="evenodd" clip-rule="evenodd" d="M45.1426 25.8515L48.7541 16.7495H50.6705L47.0592 25.8515H45.1426Z"
          fill="#C30000"/>
    <mask id="mask0_2039_108464" style="mask-type:luminance" maskUnits="userSpaceOnUse" x="52" y="16" width="5"
          height="10">
        <path fill-rule="evenodd" clip-rule="evenodd"
              d="M56.8746 25.8515V16.7495L52.2461 16.7495V25.8515H56.8746V25.8515Z" fill="white"/>
    </mask>
    <g mask="url(#mask0_2039_108464)">
        <path fill-rule="evenodd" clip-rule="evenodd"
              d="M52.2461 25.8515L55.857 16.7495H56.8747L53.2634 25.8515H52.2461Z" fill="#C30000"/>
    </g>
    <path fill-rule="evenodd" clip-rule="evenodd"
          d="M41.8203 16.7495H38.6384C38.6384 16.7495 38.4191 16.7495 38.3416 16.9442L36.5807 22.3632L34.8213 16.9442C34.7438 16.7495 34.5232 16.7495 34.5232 16.7495H28.4053C28.2729 16.7495 28.1619 16.8607 28.1619 16.993V18.8333C28.1619 17.3734 26.6167 16.7495 25.7119 16.7495C23.6858 16.7495 22.3294 18.0911 21.9071 20.1307C21.8842 18.7777 21.7724 18.2928 21.4098 17.7963C21.2433 17.553 21.0025 17.3485 20.7404 17.1794C20.2007 16.8616 19.7161 16.7495 18.6747 16.7495H17.4518C17.4518 16.7495 17.2308 16.7495 17.1528 16.9442L16.0402 19.7162V16.993C16.0402 16.8607 15.93 16.7495 15.7977 16.7495H12.9681C12.9681 16.7495 12.7496 16.7495 12.6702 16.9442L11.5134 19.8266C11.5134 19.8266 11.3979 20.1148 11.662 20.1148H12.7496V25.6072C12.7496 25.7435 12.8564 25.8515 12.9927 25.8515H15.7977C15.93 25.8515 16.0402 25.7435 16.0402 25.6072V20.1148H17.1335C17.761 20.1148 17.8938 20.132 18.1379 20.2464C18.285 20.3022 18.4174 20.4151 18.4897 20.5453C18.6376 20.8252 18.6747 21.1613 18.6747 22.1525V25.6072C18.6747 25.7435 18.7836 25.8515 18.9181 25.8515H21.6067C21.6067 25.8515 21.9105 25.8515 22.0307 25.5499L22.6265 24.0694C23.4188 25.185 24.7228 25.8515 26.3434 25.8515H26.6975C26.6975 25.8515 27.0032 25.8515 27.1242 25.5499L28.1619 22.9664V25.6072C28.1619 25.7435 28.2729 25.8515 28.4053 25.8515H31.1498C31.1498 25.8515 31.4526 25.8515 31.5742 25.5499C31.5742 25.5499 32.6719 22.8103 32.6761 22.7896H32.6778C32.72 22.5617 32.4335 22.5617 32.4335 22.5617H31.4539V17.8608L34.5359 25.5499C34.6563 25.8515 34.9597 25.8515 34.9597 25.8515H38.2019C38.2019 25.8515 38.5071 25.8515 38.6274 25.5499L42.0442 17.0443C42.1625 16.7495 41.8203 16.7495 41.8203 16.7495V16.7495ZM28.1619 22.5617H26.3184C25.5846 22.5617 24.9877 21.9644 24.9877 21.2259C24.9877 20.4886 25.5846 19.8875 26.3184 19.8875H26.8339C27.5658 19.8875 28.1619 20.4886 28.1619 21.2259V22.5617Z"
          fill="#FEFEFE"/>
</svg>
