<svg width="48" height="48" viewBox="0 0 48 48" fill="none" xmlns="http://www.w3.org/2000/svg">
    <circle cx="24" cy="24" r="24" fill="#B5F1FF"/>
    <path fill-rule="evenodd" clip-rule="evenodd"
          d="M18 14C17.4477 14 17 14.4477 17 15V21C17 23.2091 18.7909 25 21 25C23.2091 25 25 23.2091 25 21V15C25 14.4477 24.5523 14 24 14H22V12H24C25.6569 12 27 13.3431 27 15V21C27 23.973 24.8377 26.441 22 26.917V33C22 33.5523 22.4477 34 23 34C23.5523 34 24 33.5523 24 33V31.5C24 29.0147 26.0147 27 28.5 27H31.126C31.5701 25.2748 33.1362 24 35 24C37.2091 24 39 25.7909 39 28C39 30.2091 37.2091 32 35 32C33.1362 32 31.5701 30.7252 31.126 29H28.5C27.1193 29 26 30.1193 26 31.5V33C26 34.6569 24.6569 36 23 36C21.3431 36 20 34.6569 20 33V26.917C17.1623 26.441 15 23.973 15 21V15C15 13.3431 16.3431 12 18 12H20V14H18ZM35 30C36.1046 30 37 29.1046 37 28C37 26.8954 36.1046 26 35 26C33.8954 26 33 26.8954 33 28C33 29.1046 33.8954 30 35 30Z"
          fill="#262626"/>
</svg>
