<svg width="44" height="44" viewBox="0 0 44 44" fill="none" xmlns="http://www.w3.org/2000/svg">
<circle cx="22" cy="22" r="22" fill="#CAE9F5"/>
<path fill-rule="evenodd" clip-rule="evenodd" d="M23.2917 13.5833H21.7083V29.4167H23.2917V13.5833ZM20.125 12.7917V29.4167H18.5417V22.2917C18.5417 21.8544 18.1872 21.5 17.75 21.5H14.5833C14.1461 21.5 13.7917 21.8544 13.7917 22.2917V29.4167H13V31H13.7917H18.5417H20.125H24.875H26.4583H31.2083H32V29.4167H31.2083V17.5417C31.2083 17.1044 30.8539 16.75 30.4167 16.75H27.25C26.8128 16.75 26.4583 17.1044 26.4583 17.5417V29.4167H24.875V12.7917C24.875 12.3544 24.5206 12 24.0833 12H20.9167C20.4794 12 20.125 12.3544 20.125 12.7917ZM28.0417 29.4167H29.625V18.3333H28.0417V29.4167ZM15.375 29.4167V23.0833H16.9583V29.4167H15.375Z" fill="#262626"/>
</svg>
